<?xml version="1.0" standalone="no"?>
<!DOCTYPE svg PUBLIC "-//W3C//DTD SVG 20010904//EN"
 "http://www.w3.org/TR/2001/REC-SVG-20010904/DTD/svg10.dtd">
<svg version="1.0" xmlns="http://www.w3.org/2000/svg"
 width="700.000000pt" height="700.000000pt" viewBox="0 0 700.000000 700.000000"
 preserveAspectRatio="xMidYMid meet">
<metadata>
Created by potrace 1.14, written by Peter Selinger 2001-2017
</metadata>
<g transform="translate(0.000000,700.000000) scale(0.100000,-0.100000)"
fill="#000000" stroke="none">
<path d="M0 5558 l0 -79 111 -162 c61 -89 250 -367 421 -617 312 -458 353
-519 588 -865 71 -104 126 -194 122 -200 -3 -5 -67 -100 -142 -210 -75 -110
-142 -210 -150 -222 -40 -57 -248 -364 -333 -488 -163 -239 -332 -487 -342
-504 -5 -9 -12 -18 -15 -21 -3 -3 -27 -39 -55 -80 -27 -41 -85 -126 -127 -188
l-78 -114 0 -119 0 -119 468 0 468 0 120 175 c65 97 166 245 224 330 58 85
152 224 210 310 111 164 243 358 332 487 29 43 56 77 60 75 4 -1 133 -186 287
-412 154 -225 285 -417 291 -425 6 -8 55 -80 109 -160 133 -195 179 -261 224
-326 l38 -54 545 0 c433 0 544 3 538 12 -4 7 -26 40 -49 73 -23 33 -84 123
-137 200 -52 77 -141 209 -199 293 -57 84 -111 163 -119 177 -8 13 -61 90
-116 172 -56 81 -177 258 -268 393 -92 135 -173 253 -181 263 -8 9 -15 20 -15
23 0 5 -59 93 -70 104 -3 3 -60 87 -127 187 -122 180 -122 181 -104 205 9 12
71 102 136 198 65 96 146 216 180 265 135 197 216 316 310 455 54 80 113 165
130 190 17 25 98 144 180 265 82 121 166 245 187 275 21 30 43 62 48 70 6 8
44 64 85 124 41 60 75 113 75 117 0 4 -246 6 -546 5 l-547 -1 -113 -165 c-62
-91 -178 -262 -258 -380 -79 -118 -186 -276 -237 -350 -50 -74 -128 -189 -172
-255 -113 -168 -105 -161 -131 -122 -12 18 -53 77 -91 132 -37 55 -125 183
-194 285 -69 102 -171 251 -226 332 -55 81 -158 233 -228 337 l-129 189 -494
-1 -494 0 0 -79z"/>
<path d="M5937 4694 c-1 -1 -49 -4 -107 -8 -58 -3 -118 -8 -135 -11 -55 -9
-90 -15 -130 -21 -65 -9 -229 -52 -307 -80 -154 -56 -368 -175 -459 -256 -14
-13 -41 -37 -60 -53 -212 -190 -371 -484 -425 -785 -29 -162 -35 -228 -35
-387 1 -276 42 -498 132 -708 215 -504 681 -811 1339 -882 96 -10 442 -10 540
0 97 10 246 34 335 54 11 2 30 6 42 9 59 12 270 77 287 88 19 12 20 28 20 404
1 216 -1 392 -3 392 -2 0 -34 -20 -72 -45 -154 -102 -365 -182 -524 -201 -22
-3 -54 -7 -71 -10 -42 -6 -239 -6 -289 1 -206 28 -352 94 -475 215 -90 89
-128 146 -179 277 -89 226 -87 576 3 816 101 268 336 447 636 484 107 14 292
8 420 -13 106 -18 363 -120 460 -184 14 -9 41 -26 60 -38 l35 -21 -1 387 c-1
213 -2 392 -3 399 -2 26 -381 128 -556 149 -27 3 -61 8 -75 10 -79 12 -393 26
-403 18z"/>
</g>
</svg>
