<?xml version="1.0" encoding="UTF-8" standalone="no"?>
<!-- Created with Inkscape (http://www.inkscape.org/) -->

<svg
   width="512"
   height="512"
   viewBox="0 0 135.46667 135.46667"
   version="1.1"
   id="svg5"
   inkscape:version="1.1 (c68e22c387, 2021-05-23)"
   sodipodi:docname="Immersion.svg"
   xmlns:inkscape="http://www.inkscape.org/namespaces/inkscape"
   xmlns:sodipodi="http://sodipodi.sourceforge.net/DTD/sodipodi-0.dtd"
   xmlns="http://www.w3.org/2000/svg"
   xmlns:svg="http://www.w3.org/2000/svg">
  <sodipodi:namedview
     id="namedview7"
     pagecolor="#505050"
     bordercolor="#ffffff"
     borderopacity="1"
     inkscape:pageshadow="0"
     inkscape:pageopacity="0"
     inkscape:pagecheckerboard="1"
     inkscape:document-units="px"
     showgrid="false"
     inkscape:zoom="1.5214844"
     inkscape:cx="194.87548"
     inkscape:cy="255.34275"
     inkscape:window-width="1920"
     inkscape:window-height="1137"
     inkscape:window-x="-8"
     inkscape:window-y="-8"
     inkscape:window-maximized="1"
     inkscape:current-layer="layer1" />
  <defs
     id="defs2" />
  <g
     inkscape:label="Layer 1"
     inkscape:groupmode="layer"
     id="layer1">
    <rect
       style="fill:#cc444b;stroke-width:2.64583;stroke-linecap:round;stroke-dashoffset:9.44882;fill-opacity:1"
       id="rect3988"
       width="135.46667"
       height="135.46667"
       x="-2.4023439e-06"
       y="-2.4023439e-06" />
    <path
       id="path3718"
       style="font-weight:600;font-size:13.7098px;line-height:1.25;font-family:Montserrat;-inkscape-font-specification:'Montserrat Semi-Bold';stroke-width:0.809631;fill:#e4b1ab;fill-opacity:1"
       d="M 299.88867 239.27148 C 296.57241 239.27148 293.82669 239.77165 291.65039 240.77344 C 289.50864 241.74068 287.90291 243.05476 286.83203 244.71289 C 285.7957 246.33647 285.27734 248.13253 285.27734 250.10156 C 285.27734 252.03605 285.67423 253.62554 286.46875 254.86914 C 287.26327 256.11274 288.28179 257.11307 289.52539 257.87305 C 290.80353 258.59848 292.2027 259.20388 293.72266 259.6875 C 295.27715 260.13658 296.81403 260.53346 298.33398 260.87891 C 299.88848 261.22435 301.28765 261.605 302.53125 262.01953 C 303.80939 262.39952 304.84611 262.93411 305.64062 263.625 C 306.43515 264.28134 306.83203 265.16216 306.83203 266.26758 C 306.83203 267.16573 306.55662 267.97769 306.00391 268.70312 C 305.4512 269.39401 304.58662 269.94679 303.41211 270.36133 C 302.2376 270.77586 300.70072 270.98242 298.80078 270.98242 C 296.5554 270.98242 294.36246 270.60372 292.2207 269.84375 C 290.07895 269.08377 288.2829 268.1341 286.83203 266.99414 L 284.5 272.22656 C 286.01995 273.50471 288.07519 274.55765 290.66602 275.38672 C 293.25684 276.18124 295.96814 276.58008 298.80078 276.58008 C 302.11704 276.58008 304.86277 276.09615 307.03906 275.12891 C 309.21536 274.12712 310.82304 272.81499 311.85938 271.19141 C 312.93025 269.53328 313.46484 267.73527 313.46484 265.80078 C 313.46484 263.90084 313.06796 262.32954 312.27344 261.08594 C 311.51346 259.84234 310.49494 258.85824 309.2168 258.13281 C 307.9732 257.40738 306.57403 256.82017 305.01953 256.37109 C 303.49958 255.92202 301.96075 255.52513 300.40625 255.17969 C 298.85175 254.7997 297.43635 254.41905 296.1582 254.03906 C 294.91461 253.65907 293.89608 253.14072 293.10156 252.48438 C 292.34159 251.79349 291.96094 250.89644 291.96094 249.79102 C 291.96094 248.85832 292.22012 248.02817 292.73828 247.30273 C 293.29099 246.5773 294.13738 245.99009 295.27734 245.54102 C 296.45185 245.09194 297.97249 244.86719 299.83789 244.86719 C 301.42693 244.86719 303.08528 245.11013 304.8125 245.59375 C 306.53972 246.04283 308.21431 246.74956 309.83789 247.7168 L 311.96289 242.48438 C 310.37385 241.44804 308.50698 240.65427 306.36523 240.10156 C 304.22348 239.54885 302.06497 239.27148 299.88867 239.27148 z M 353.62305 239.27148 C 350.82495 239.27148 348.23317 239.73723 345.84961 240.66992 C 343.46605 241.60262 341.39458 242.9167 339.63281 244.60938 C 337.87105 246.26751 336.5063 248.2357 335.53906 250.51562 C 334.57182 252.76101 334.08789 255.23132 334.08789 257.92578 C 334.08789 260.62024 334.57182 263.10679 335.53906 265.38672 C 336.5063 267.6321 337.87105 269.60225 339.63281 271.29492 C 341.39458 272.95305 343.46605 274.24699 345.84961 275.17969 C 348.23317 276.11239 350.84119 276.58008 353.67383 276.58008 C 356.47192 276.58008 359.04551 276.11239 361.39453 275.17969 C 363.77809 274.24699 365.85152 272.95305 367.61328 271.29492 C 369.37504 269.63679 370.73979 267.66665 371.70703 265.38672 C 372.67428 263.10679 373.1582 260.62024 373.1582 257.92578 C 373.1582 255.23132 372.67428 252.76101 371.70703 250.51562 C 370.73979 248.2357 369.37504 246.26751 367.61328 244.60938 C 365.85152 242.9167 363.77809 241.60262 361.39453 240.66992 C 359.04551 239.73723 356.45569 239.27148 353.62305 239.27148 z M 99.462891 239.78906 L 99.462891 276.06055 L 106.19922 276.06055 L 106.19922 239.78906 L 99.462891 239.78906 z M 115.99219 239.78906 L 115.99219 276.06055 L 122.41797 276.06055 L 122.41797 252.34375 L 134.33594 271.91602 L 137.33984 271.91602 L 149.26172 252.03125 L 149.31055 276.06055 L 155.68359 276.06055 L 155.63281 239.78906 L 150.08789 239.78906 L 135.92969 263.82422 L 121.53711 239.78906 L 115.99219 239.78906 z M 165.47656 239.78906 L 165.47656 276.06055 L 171.90234 276.06055 L 171.90234 252.34375 L 183.82031 271.91602 L 186.82617 271.91602 L 198.74805 252.0293 L 198.79492 276.06055 L 205.16797 276.06055 L 205.11719 239.78906 L 199.57227 239.78906 L 185.41406 263.82422 L 171.02148 239.78906 L 165.47656 239.78906 z M 214.96094 239.78906 L 214.96094 276.06055 L 242.16602 276.06055 L 242.16602 270.41406 L 221.69727 270.41406 L 221.69727 260.41211 L 239.21289 260.41211 L 239.21289 254.86914 L 221.69727 254.86914 L 221.69727 245.4375 L 241.43945 245.4375 L 241.43945 239.78906 L 214.96094 239.78906 z M 249.67969 239.78906 L 249.67969 276.06055 L 256.41406 276.06055 L 256.41406 265.49023 L 264.60156 265.49023 C 265.08509 265.49023 265.55713 265.47777 266.01953 265.45508 L 273.41016 276.06055 L 280.66602 276.06055 L 272.34766 264.19336 C 272.51434 264.12724 272.67982 264.05945 272.8418 263.98828 C 275.15627 262.95195 276.93414 261.48393 278.17773 259.58398 C 279.42133 257.6495 280.04297 255.35132 280.04297 252.69141 C 280.04297 250.03149 279.42133 247.73526 278.17773 245.80078 C 276.93414 243.8663 275.15627 242.38008 272.8418 241.34375 C 270.56187 240.30742 267.81419 239.78906 264.60156 239.78906 L 249.67969 239.78906 z M 320.14844 239.78906 L 320.14844 276.06055 L 326.88477 276.06055 L 326.88477 239.78906 L 320.14844 239.78906 z M 380.30859 239.78906 L 380.30859 276.06055 L 386.99219 276.06055 L 386.99219 251.50391 L 406.99414 276.06055 L 412.53711 276.06055 L 412.53711 239.78906 L 405.85352 239.78906 L 405.85352 264.34766 L 385.85352 239.78906 L 380.30859 239.78906 z M 353.62305 245.17773 C 355.4539 245.17773 357.14667 245.48953 358.70117 246.11133 C 360.25567 246.73313 361.60222 247.63213 362.74219 248.80664 C 363.88215 249.9466 364.76297 251.29316 365.38477 252.84766 C 366.04111 254.36761 366.36914 256.06039 366.36914 257.92578 C 366.36914 259.79118 366.04111 261.50019 365.38477 263.05469 C 364.76297 264.57464 363.88215 265.92315 362.74219 267.09766 C 361.60222 268.23762 360.25567 269.11844 358.70117 269.74023 C 357.14667 270.36203 355.4539 270.67188 353.62305 270.67188 C 351.7922 270.67188 350.09942 270.36203 348.54492 269.74023 C 346.99042 269.11844 345.64387 268.23762 344.50391 267.09766 C 343.36394 265.92315 342.46494 264.5584 341.80859 263.00391 C 341.18679 261.44941 340.875 259.75663 340.875 257.92578 C 340.875 256.06039 341.18679 254.36761 341.80859 252.84766 C 342.46494 251.29316 343.36394 249.9466 344.50391 248.80664 C 345.67842 247.63213 347.02497 246.73313 348.54492 246.11133 C 350.09942 245.48953 351.7922 245.17773 353.62305 245.17773 z M 256.41406 245.49023 L 264.29102 245.49023 C 267.26183 245.49023 269.4892 246.11187 270.97461 247.35547 C 272.49456 248.59906 273.25586 250.37693 273.25586 252.69141 C 273.25586 254.97134 272.49456 256.75116 270.97461 258.0293 C 269.4892 259.30744 267.26183 259.94727 264.29102 259.94727 L 256.41406 259.94727 L 256.41406 245.49023 z "
       transform="scale(0.26458334)" />
    <path
       id="path3765"
       style="font-weight:600;font-size:4.71274px;line-height:1.25;font-family:Montserrat;-inkscape-font-specification:'Montserrat Semi-Bold';stroke-width:0.809631;fill:#f25059;fill-opacity:1"
       d="M 284.97461 280.13477 C 284.08123 280.15355 283.25056 280.31466 282.48242 280.61523 C 281.66307 280.93585 280.95131 281.38689 280.3457 281.96875 C 279.7401 282.53873 279.26999 283.21627 278.9375 284 C 278.60501 284.77185 278.43945 285.62065 278.43945 286.54688 C 278.43945 287.4731 278.60501 288.3276 278.9375 289.11133 C 279.26999 289.88318 279.7401 290.56072 280.3457 291.14258 C 280.95131 291.71256 281.66307 292.15595 282.48242 292.47656 C 283.30177 292.79718 284.19816 292.95898 285.17188 292.95898 C 286.13372 292.95898 287.0187 292.79718 287.82617 292.47656 C 288.64552 292.15595 289.35924 291.71256 289.96484 291.14258 C 290.57045 290.5726 291.0386 289.89505 291.37109 289.11133 C 291.70358 288.3276 291.86914 287.4731 291.86914 286.54688 C 291.86914 285.62065 291.70358 284.77185 291.37109 284 C 291.0386 283.21627 290.57045 282.53873 289.96484 281.96875 C 289.35924 281.38689 288.64552 280.93585 287.82617 280.61523 C 287.0187 280.29462 286.12801 280.13477 285.1543 280.13477 C 285.09418 280.13477 285.03417 280.13351 284.97461 280.13477 z M 298.56641 280.13477 C 297.42644 280.13477 296.48247 280.30603 295.73438 280.65039 C 294.99815 280.98288 294.44624 281.43393 294.07812 282.00391 C 293.72189 282.56201 293.54492 283.18057 293.54492 283.85742 C 293.54492 284.5224 293.68001 285.06861 293.95312 285.49609 C 294.22624 285.92358 294.57642 286.26806 295.00391 286.5293 C 295.44327 286.77866 295.92478 286.98609 296.44727 287.15234 C 296.98163 287.30671 297.51072 287.44179 298.0332 287.56055 C 298.56756 287.6793 299.04712 287.81064 299.47461 287.95312 C 299.91397 288.08376 300.27181 288.26838 300.54492 288.50586 C 300.81804 288.73148 300.95312 289.03407 300.95312 289.41406 C 300.95313 289.7228 300.85795 290.00258 300.66797 290.25195 C 300.47797 290.48945 300.18108 290.67782 299.77734 290.82031 C 299.3736 290.9628 298.84646 291.03516 298.19336 291.03516 C 297.42151 291.03516 296.66787 290.90382 295.93164 290.64258 C 295.19541 290.38134 294.57686 290.05593 294.07812 289.66406 L 293.27734 291.46289 C 293.79983 291.90225 294.50589 292.26384 295.39648 292.54883 C 296.28708 292.82194 297.21964 292.95898 298.19336 292.95898 C 299.33332 292.95898 300.27729 292.79147 301.02539 292.45898 C 301.77349 292.11462 302.3254 291.66358 302.68164 291.10547 C 303.04975 290.53549 303.23438 289.91889 303.23438 289.25391 C 303.23438 288.6008 303.09733 288.0603 302.82422 287.63281 C 302.56298 287.20533 302.2128 286.86656 301.77344 286.61719 C 301.34595 286.36781 300.86444 286.16607 300.33008 286.01172 C 299.80759 285.85736 299.28045 285.72032 298.74609 285.60156 C 298.21173 285.47094 297.72452 285.34156 297.28516 285.21094 C 296.85767 285.08031 296.50749 284.90139 296.23438 284.67578 C 295.97313 284.43829 295.8418 284.12999 295.8418 283.75 C 295.8418 283.42939 295.93126 283.1439 296.10938 282.89453 C 296.29937 282.64518 296.59056 282.44344 296.98242 282.28906 C 297.38616 282.13471 297.9076 282.05664 298.54883 282.05664 C 299.09506 282.05664 299.66603 282.14039 300.25977 282.30664 C 300.8535 282.46101 301.42822 282.70462 301.98633 283.03711 L 302.7168 281.23828 C 302.17056 280.88203 301.5292 280.60795 300.79297 280.41797 C 300.05674 280.22798 299.31451 280.13477 298.56641 280.13477 z M 185.18359 280.3125 L 185.18359 292.78125 L 194.53516 292.78125 L 194.53516 290.83789 L 187.49805 290.83789 L 187.49805 287.40039 L 193.51953 287.40039 L 193.51953 285.49609 L 187.49805 285.49609 L 187.49805 282.25391 L 194.28516 282.25391 L 194.28516 280.3125 L 185.18359 280.3125 z M 195.7168 280.3125 L 200.0918 286.41602 L 195.4668 292.78125 L 198.10352 292.78125 L 201.44727 288.03516 L 204.83594 292.78125 L 207.50781 292.78125 L 209.33008 292.78125 L 210.56445 289.89453 L 216.79883 289.89453 L 218.03906 292.78125 L 220.46094 292.78125 L 214.83398 280.3125 L 212.55273 280.3125 L 207.16016 292.30078 L 202.82617 286.33203 L 207.1875 280.3125 L 204.67578 280.3125 L 201.52734 284.74023 L 198.33594 280.3125 L 195.7168 280.3125 z M 222.04688 280.3125 L 222.04688 292.78125 L 224.25586 292.78125 L 224.25586 284.62891 L 228.35156 291.35547 L 229.38477 291.35547 L 233.48438 284.51953 L 233.5 292.78125 L 235.69141 292.78125 L 235.67383 280.3125 L 233.76758 280.3125 L 228.90039 288.57422 L 223.95312 280.3125 L 222.04688 280.3125 z M 239.05664 280.3125 L 239.05664 292.78125 L 241.37305 292.78125 L 241.37305 289.18164 L 244.1875 289.18164 C 245.29184 289.18164 246.23581 289.00468 247.01953 288.64844 C 247.81513 288.2922 248.42603 287.78021 248.85352 287.11523 C 249.281 286.45025 249.49609 285.66239 249.49609 284.74805 C 249.49609 283.8337 249.281 283.04388 248.85352 282.37891 C 248.42603 281.71393 247.81513 281.20194 247.01953 280.8457 C 246.23581 280.48947 245.29184 280.3125 244.1875 280.3125 L 239.05664 280.3125 z M 251.81055 280.3125 L 251.81055 292.78125 L 260.64453 292.78125 L 260.64453 290.82031 L 254.12695 290.82031 L 254.12695 280.3125 L 251.81055 280.3125 z M 262.48047 280.3125 L 262.48047 292.78125 L 271.83203 292.78125 L 271.83203 290.83789 L 264.79492 290.83789 L 264.79492 287.40039 L 270.81641 287.40039 L 270.81641 285.49609 L 264.79492 285.49609 L 264.79492 282.25391 L 271.58203 282.25391 L 271.58203 280.3125 L 262.48047 280.3125 z M 310.33984 280.3125 L 310.33984 287.34766 C 310.33984 289.16448 310.82136 290.55378 311.7832 291.51562 C 312.75692 292.47747 314.09865 292.95898 315.80859 292.95898 C 317.50666 292.95898 318.83698 292.47747 319.79883 291.51562 C 320.77255 290.55378 321.25977 289.16448 321.25977 287.34766 L 321.25977 280.3125 L 318.97852 280.3125 L 318.97852 287.25781 C 318.97852 288.54027 318.70639 289.47283 318.16016 290.05469 C 317.61392 290.63654 316.83551 290.92773 315.82617 290.92773 C 314.81683 290.92773 314.03272 290.63654 313.47461 290.05469 C 312.92838 289.47283 312.65625 288.54027 312.65625 287.25781 L 312.65625 280.3125 L 310.33984 280.3125 z M 324.50195 280.3125 L 324.50195 292.78125 L 326.81641 292.78125 L 326.81641 280.3125 L 324.50195 280.3125 z M 285.1543 282.16406 C 285.78365 282.16406 286.36603 282.27063 286.90039 282.48438 C 287.43475 282.69812 287.8972 283.00837 288.28906 283.41211 C 288.68092 283.80397 288.98352 284.26642 289.19727 284.80078 C 289.42288 285.32327 289.53711 285.90565 289.53711 286.54688 C 289.53711 287.1881 289.42288 287.77424 289.19727 288.30859 C 288.98352 288.83108 288.68092 289.29548 288.28906 289.69922 C 287.8972 290.09108 287.43475 290.39368 286.90039 290.60742 C 286.36603 290.82117 285.78365 290.92773 285.1543 290.92773 C 284.52494 290.92773 283.94256 290.82117 283.4082 290.60742 C 282.87385 290.39368 282.4114 290.09108 282.01953 289.69922 C 281.62766 289.29548 281.31936 288.82537 281.09375 288.29102 C 280.88001 287.75666 280.77344 287.17623 280.77344 286.54688 C 280.77344 285.90565 280.88001 285.32327 281.09375 284.80078 C 281.31937 284.26642 281.62767 283.80397 282.01953 283.41211 C 282.42327 283.00837 282.88572 282.69812 283.4082 282.48438 C 283.94256 282.27063 284.52494 282.16406 285.1543 282.16406 z M 241.37305 282.27148 L 244.08008 282.27148 C 245.1013 282.27148 245.8683 282.48462 246.37891 282.91211 C 246.90139 283.3396 247.16211 283.95245 247.16211 284.74805 C 247.16211 285.53177 246.90139 286.14267 246.37891 286.58203 C 245.8683 287.00952 245.1013 287.22266 244.08008 287.22266 L 241.37305 287.22266 L 241.37305 282.27148 z M 213.67578 282.62109 L 216.01953 288.07812 L 211.3418 288.07812 L 213.67578 282.62109 z "
       transform="scale(0.26458334)" />
    <rect
       style="fill:#f25059;stroke-width:2.51401;stroke-linecap:round;stroke-dashoffset:9.44882;fill-opacity:1"
       id="rect3840"
       width="21.550314"
       height="1.0689467"
       x="26.316223"
       y="74.166016" />
    <rect
       style="fill:#f25059;stroke-width:4.92884;stroke-linecap:round;stroke-dashoffset:9.44882;fill-opacity:1"
       id="rect3840-0"
       width="82.834167"
       height="1.0689467"
       x="26.316223"
       y="61.250515" />
    <rect
       style="fill:#f25059;stroke-width:2.51401;stroke-linecap:round;stroke-dashoffset:9.44882;fill-opacity:1"
       id="rect3840-2"
       width="21.550314"
       height="1.0689467"
       x="87.600136"
       y="74.166016" />
  </g>
</svg>
